<?xml version="1.0" encoding="UTF-8"?> <svg xmlns="http://www.w3.org/2000/svg" width="3618" height="3841" viewBox="0 0 3618 3841" fill="none"> <path d="M3046.62 839.353V839.343H3046.61L2887.69 715.15V715.142L2728.75 590.945V590.936H2728.75L2713.57 579.073L2714.02 575.147V575.114L2741.38 336.218L2752.96 235.171V235.129L2779.84 0.451904H2780.44L3617.1 653.479L3400.29 759.344H3400.28L3119.62 896.385L3046.62 839.353Z" fill="url(#paint0_linear_1387_2)"></path> <path d="M1662.04 780.793V1329.38L1453.17 1232.57L902.813 978.896L836.48 399.843L1662.04 780.793Z" fill="url(#paint1_linear_1387_2)"></path> <path d="M902.813 978.896L497.663 1296.21L0.160156 1053.3L836.48 399.843L902.813 978.896Z" fill="url(#paint2_linear_1387_2)"></path> <path d="M497.663 1296.21V2188.09L0.160156 2417.57V1053.3L497.663 1296.21Z" fill="url(#paint3_linear_1387_2)"></path> <path d="M1662.04 3184.87V3840.11L0.160156 2417.57L497.663 2188.09L1662.04 3184.87Z" fill="url(#paint4_linear_1387_2)"></path> <path d="M2486.7 399.843L2420.37 978.896L1870.01 1232.57L1662.04 1329.38V780.793L2486.7 399.843Z" fill="url(#paint5_linear_1387_2)"></path> <path d="M3323.92 2417.57L1662.04 3840.11V3184.87L2826.43 2188.09L3323.92 2417.57Z" fill="url(#paint6_linear_1387_2)"></path> <path d="M3323.92 1053.3V2417.57L2826.43 2188.09V1296.21L3323.92 1053.3Z" fill="url(#paint7_linear_1387_2)"></path> <defs> <linearGradient id="paint0_linear_1387_2" x1="2713.57" y1="0.451904" x2="3617.1" y2="0.451904" gradientUnits="userSpaceOnUse"> <stop stop-color="#E62C71"></stop> <stop offset="1" stop-color="#EB5C21"></stop> </linearGradient> <linearGradient id="paint1_linear_1387_2" x1="836.48" y1="399.843" x2="1662.04" y2="399.843" gradientUnits="userSpaceOnUse"> <stop stop-color="#E62C71"></stop> <stop offset="1" stop-color="#EB5C21"></stop> </linearGradient> <linearGradient id="paint2_linear_1387_2" x1="0.160156" y1="399.843" x2="902.813" y2="399.843" gradientUnits="userSpaceOnUse"> <stop stop-color="#E62C71"></stop> <stop offset="1" stop-color="#EB5C21"></stop> </linearGradient> <linearGradient id="paint3_linear_1387_2" x1="-23977.6" y1="11773.6" x2="-23977.6" y2="10409.3" gradientUnits="userSpaceOnUse"> <stop stop-color="#E62C71"></stop> <stop offset="1" stop-color="#EB5C21"></stop> </linearGradient> <linearGradient id="paint4_linear_1387_2" x1="-17074.9" y1="18063.3" x2="-18283.1" y2="16936.6" gradientUnits="userSpaceOnUse"> <stop stop-color="#E62C71"></stop> <stop offset="1" stop-color="#EB5C21"></stop> </linearGradient> <linearGradient id="paint5_linear_1387_2" x1="1662.04" y1="399.843" x2="2486.7" y2="399.843" gradientUnits="userSpaceOnUse"> <stop stop-color="#E62C71"></stop> <stop offset="1" stop-color="#EB5C21"></stop> </linearGradient> <linearGradient id="paint6_linear_1387_2" x1="22.6316" y1="14154.6" x2="-1242.88" y2="15216.4" gradientUnits="userSpaceOnUse"> <stop stop-color="#E62C71"></stop> <stop offset="1" stop-color="#EB5C21"></stop> </linearGradient> <linearGradient id="paint7_linear_1387_2" x1="2826.43" y1="1053.3" x2="2826.43" y2="2417.57" gradientUnits="userSpaceOnUse"> <stop stop-color="#E62C71"></stop> <stop offset="1" stop-color="#EB5C21"></stop> </linearGradient> </defs> </svg> 