<svg width="348" height="144" viewBox="0 0 348 144" fill="none" xmlns="http://www.w3.org/2000/svg">
<rect width="348" height="144" fill="transparent"/>
<path d="M24 47.5L33 19H114L104.5 47.5H81L57.5 125.5H24L48 47.5H24Z" fill="#737373"/>
<path d="M76 69L59 125.5H76L80.5 109.5L89.5 125.5L102.5 109.5L104 125.5H120L114.5 69L92.5 98.5L76 69Z" fill="#737373"/>
<path d="M147.807 67.3636L148.455 63.5455H163.625L162.977 67.3636H157.727L155.477 81H150.807L153.057 67.3636H147.807ZM162.511 81L165.408 63.5455H172.942C174.238 63.5455 175.329 63.8011 176.215 64.3125C177.102 64.8239 177.738 65.5426 178.124 66.4688C178.511 67.3949 178.602 68.4773 178.397 69.7159C178.192 70.9773 177.738 72.0653 177.033 72.9801C176.335 73.8892 175.442 74.5909 174.357 75.0852C173.278 75.5739 172.067 75.8182 170.727 75.8182H166.227L166.84 72.1364H170.386C170.954 72.1364 171.454 72.0398 171.886 71.8466C172.317 71.6477 172.667 71.3693 172.934 71.0114C173.201 70.6477 173.374 70.2159 173.454 69.7159C173.533 69.2159 173.496 68.7898 173.343 68.4375C173.195 68.0795 172.94 67.8068 172.576 67.6193C172.218 67.4261 171.761 67.3295 171.204 67.3295H169.533L167.249 81H162.511ZM180.615 81H175.501L184.161 63.5455H190.638L193.501 81H188.388L186.683 68.3523H186.547L180.615 81ZM180.82 74.1136H190.433L189.82 77.6591H180.206L180.82 74.1136ZM205.938 81L201.762 73.9432H201.097L199.921 81H195.183L198.08 63.5455H202.819L201.728 70.125H202.342L208.444 63.5455H214.41L206.381 71.9318L211.887 81H205.938ZM216.057 63.5455H221.955L224.375 73.4318H224.58L230.273 63.5455H236.17L233.273 81H228.636L230.307 70.9091H230.17L224.648 80.8636H221.852L219.636 70.8409H219.5L217.795 81H213.159L216.057 63.5455ZM253.825 72.5795C253.507 74.4773 252.876 76.0682 251.933 77.3523C250.99 78.6364 249.845 79.6051 248.499 80.2585C247.152 80.9119 245.712 81.2386 244.178 81.2386C242.541 81.2386 241.121 80.8835 239.916 80.1733C238.712 79.4631 237.834 78.4233 237.283 77.054C236.732 75.6847 236.621 74.0114 236.95 72.0341C237.257 70.1364 237.882 68.5398 238.825 67.2443C239.768 65.9489 240.919 64.9688 242.277 64.304C243.635 63.6392 245.087 63.3068 246.632 63.3068C248.257 63.3068 249.669 63.6648 250.868 64.3807C252.072 65.0966 252.947 66.1449 253.493 67.5256C254.044 68.9062 254.155 70.5909 253.825 72.5795ZM249.053 72.0341C249.212 71.0341 249.223 70.1932 249.087 69.5114C248.95 68.8239 248.663 68.3068 248.226 67.9602C247.788 67.608 247.2 67.4318 246.462 67.4318C245.621 67.4318 244.876 67.6364 244.229 68.0455C243.581 68.4545 243.044 69.0426 242.618 69.8097C242.192 70.5767 241.893 71.5 241.723 72.5795C241.541 73.5909 241.524 74.4318 241.672 75.1023C241.825 75.7727 242.126 76.2756 242.575 76.6108C243.03 76.946 243.621 77.1136 244.348 77.1136C245.178 77.1136 245.911 76.9148 246.547 76.517C247.189 76.1193 247.72 75.5426 248.141 74.7869C248.567 74.0312 248.871 73.1136 249.053 72.0341ZM255.572 67.3636L256.22 63.5455H271.391L270.743 67.3636H265.493L263.243 81H258.572L260.822 67.3636H255.572ZM287.763 72.5795C287.445 74.4773 286.814 76.0682 285.871 77.3523C284.928 78.6364 283.783 79.6051 282.436 80.2585C281.089 80.9119 279.649 81.2386 278.115 81.2386C276.479 81.2386 275.058 80.8835 273.854 80.1733C272.649 79.4631 271.771 78.4233 271.22 77.054C270.669 75.6847 270.558 74.0114 270.888 72.0341C271.195 70.1364 271.82 68.5398 272.763 67.2443C273.706 65.9489 274.857 64.9688 276.214 64.304C277.572 63.6392 279.024 63.3068 280.57 63.3068C282.195 63.3068 283.607 63.6648 284.805 64.3807C286.01 65.0966 286.885 66.1449 287.43 67.5256C287.982 68.9062 288.092 70.5909 287.763 72.5795ZM282.99 72.0341C283.149 71.0341 283.161 70.1932 283.024 69.5114C282.888 68.8239 282.601 68.3068 282.163 67.9602C281.726 67.608 281.138 67.4318 280.399 67.4318C279.558 67.4318 278.814 67.6364 278.166 68.0455C277.518 68.4545 276.982 69.0426 276.555 69.8097C276.129 70.5767 275.831 71.5 275.661 72.5795C275.479 73.5909 275.462 74.4318 275.609 75.1023C275.763 75.7727 276.064 76.2756 276.513 76.6108C276.967 76.946 277.558 77.1136 278.286 77.1136C279.115 77.1136 279.848 76.9148 280.484 76.517C281.126 76.1193 281.658 75.5426 282.078 74.7869C282.504 74.0312 282.808 73.1136 282.99 72.0341ZM288.558 81L291.455 63.5455H298.989C300.285 63.5455 301.376 63.8011 302.262 64.3125C303.148 64.8239 303.785 65.5426 304.171 66.4688C304.558 67.3949 304.648 68.4773 304.444 69.7159C304.239 70.9773 303.785 72.0653 303.08 72.9801C302.381 73.8892 301.489 74.5909 300.404 75.0852C299.325 75.5739 298.114 75.8182 296.773 75.8182H292.273L292.887 72.1364H296.433C297.001 72.1364 297.501 72.0398 297.933 71.8466C298.364 71.6477 298.714 71.3693 298.981 71.0114C299.248 70.6477 299.421 70.2159 299.501 69.7159C299.58 69.2159 299.543 68.7898 299.39 68.4375C299.242 68.0795 298.987 67.8068 298.623 67.6193C298.265 67.4261 297.808 67.3295 297.251 67.3295H295.58L293.296 81H288.558ZM322.393 70.0909H317.654C317.688 69.6875 317.665 69.3239 317.586 69C317.506 68.6761 317.37 68.3977 317.177 68.1648C316.984 67.9261 316.731 67.7443 316.418 67.6193C316.106 67.4943 315.734 67.4318 315.302 67.4318C314.472 67.4318 313.731 67.6392 313.077 68.054C312.424 68.4631 311.881 69.0511 311.45 69.8182C311.018 70.5795 310.711 71.4886 310.529 72.5455C310.37 73.5682 310.364 74.4176 310.512 75.0938C310.665 75.7699 310.964 76.2756 311.407 76.6108C311.856 76.946 312.438 77.1136 313.154 77.1136C313.631 77.1136 314.069 77.0568 314.467 76.9432C314.87 76.8295 315.228 76.6676 315.54 76.4574C315.859 76.2415 316.129 75.9858 316.35 75.6903C316.577 75.3892 316.751 75.0568 316.87 74.6932H321.643C321.461 75.4318 321.137 76.1875 320.671 76.9602C320.205 77.7273 319.603 78.4347 318.864 79.0824C318.126 79.7244 317.256 80.2443 316.256 80.642C315.256 81.0398 314.131 81.2386 312.881 81.2386C311.245 81.2386 309.833 80.8807 308.646 80.1648C307.464 79.4489 306.606 78.4034 306.072 77.0284C305.543 75.6534 305.438 73.9773 305.756 72C306.075 70.0909 306.702 68.4915 307.64 67.2017C308.577 65.9119 309.717 64.9403 311.058 64.2869C312.398 63.6335 313.825 63.3068 315.336 63.3068C316.478 63.3068 317.501 63.4574 318.404 63.7585C319.313 64.0597 320.077 64.5 320.697 65.0795C321.322 65.6534 321.782 66.3608 322.077 67.2017C322.373 68.0426 322.478 69.0057 322.393 70.0909Z" fill="#737373"/>
<path d="M288.477 84.2727L287.028 93H284.693L285.835 86.1477H282.886L281.744 93H279.409L280.858 84.2727H288.477ZM288.544 93L289.993 84.2727H296.283L295.959 86.1818H292.039L291.8 87.6818H295.397L295.073 89.5909H291.476L291.238 91.0909H295.141L294.817 93H288.544ZM296.009 93L297.458 84.2727H301.225C301.873 84.2727 302.418 84.4006 302.862 84.6562C303.305 84.9119 303.623 85.2713 303.816 85.7344C304.009 86.1974 304.055 86.7386 303.952 87.358C303.85 87.9886 303.623 88.5327 303.271 88.9901C302.921 89.4446 302.475 89.7955 301.933 90.0426C301.393 90.2869 300.788 90.4091 300.117 90.4091H297.867L298.174 88.5682H299.947C300.231 88.5682 300.481 88.5199 300.697 88.4233C300.913 88.3239 301.087 88.1847 301.221 88.0057C301.354 87.8239 301.441 87.608 301.481 87.358C301.521 87.108 301.502 86.8949 301.425 86.7188C301.352 86.5398 301.224 86.4034 301.042 86.3097C300.863 86.2131 300.634 86.1648 300.356 86.1648H299.521L298.379 93H296.009ZM305.333 84.2727H308.282L309.492 89.2159H309.594L312.441 84.2727H315.39L313.941 93H311.623L312.458 87.9545H312.39L309.629 92.9318H308.231L307.123 87.9205H307.055L306.202 93H303.884L305.333 84.2727ZM317.536 87.2045H319.342C320.078 87.2045 320.7 87.3224 321.209 87.5582C321.72 87.794 322.092 88.1264 322.325 88.5554C322.561 88.9844 322.629 89.4886 322.53 90.0682C322.436 90.6477 322.199 91.1577 321.818 91.598C321.438 92.0384 320.952 92.3821 320.361 92.6293C319.77 92.8764 319.107 93 318.371 93H315.115L316.564 84.2727H318.933L317.791 91.142H318.678C318.964 91.142 319.213 91.0952 319.423 91.0014C319.636 90.9077 319.807 90.7784 319.935 90.6136C320.065 90.4489 320.146 90.2614 320.178 90.0511C320.232 89.7528 320.162 89.5057 319.969 89.3097C319.776 89.1108 319.464 89.0114 319.036 89.0114H317.229L317.536 87.2045Z" fill="#737373"/>
</svg>
